<?xml version="1.0" encoding="utf-8"?>
<!-- Generator: Adobe Illustrator 25.1.0, SVG Export Plug-In . SVG Version: 6.00 Build 0)  -->
<svg version="1.1" id="Layer_1" xmlns="http://www.w3.org/2000/svg" xmlns:xlink="http://www.w3.org/1999/xlink" x="0px" y="0px"
	 viewBox="0 0 1600 500" style="enable-background:new 0 0 1600 500;" xml:space="preserve">
<style type="text/css">
	.st0{fill:none;stroke:#4771c1;stroke-width:1.7;}
	.st1{clip-path:url(#SVGID_2_);fill:none;stroke:#4771c1;stroke-width:1.7;}
	.st2{clip-path:url(#SVGID_4_);fill:none;stroke:#4771c1;stroke-width:1.7;}
	.st3{clip-path:url(#SVGID_6_);fill:none;stroke:#4771c1;stroke-width:1.7;}
	.st4{clip-path:url(#SVGID_6_);fill:none;stroke:#4771c1;stroke-width:1.7;stroke-dasharray:5.429,3.729;}
	.st5{clip-path:url(#SVGID_8_);fill:#4771c1;}
	.st6{fill:none;stroke:#4771c1;stroke-width:1.7;stroke-dasharray:5.076,3.376;}
	.st7{fill:none;stroke:#4771c1;stroke-width:1.7;stroke-dasharray:4.942,3.242;}
	.st8{clip-path:url(#SVGID_10_);fill:none;stroke:#4771c1;stroke-width:1.7;}
	.st9{fill:none;stroke:#4771c1;stroke-width:1.7;stroke-dasharray:5.099,3.399;}
	.st10{fill:none;stroke:#4771c1;stroke-width:1.7;stroke-dasharray:4.985,3.285;}
	.st11{fill:none;stroke:#4771c1;stroke-width:1.7;stroke-dasharray:5.135,3.435;}
	.st12{fill:none;stroke:#4771c1;stroke-width:1.7;stroke-dasharray:5.188,3.488;}
	.st13{fill:none;stroke:#4771c1;stroke-width:1.7;stroke-dasharray:4.896,3.196;}
	.st14{fill:none;stroke:#4771c1;stroke-width:1.7;stroke-dasharray:5.057,3.357;}
	.st15{fill:none;stroke:#4771c1;stroke-width:1.7;stroke-dasharray:5.069,3.369;}
	.st16{fill:none;stroke:#4771c1;stroke-width:1.7;stroke-dasharray:5.056,3.356;}
	.st17{fill:none;stroke:#4771c1;stroke-width:1.7;stroke-dasharray:5.186,3.486;}
	.st18{clip-path:url(#SVGID_12_);fill:none;stroke:#4771c1;stroke-width:1.7;stroke-dasharray:4.993,3.293;}
	.st19{clip-path:url(#SVGID_12_);fill:none;stroke:#4771c1;stroke-width:1.7;}
	.st20{fill:none;stroke:#4771c1;stroke-width:1.7;stroke-dasharray:5.266,3.566;}
	.st21{fill:none;stroke:#4771c1;stroke-width:1.7;stroke-dasharray:5.093,3.393;}
	.st22{fill:none;stroke:#4771c1;stroke-width:1.7;stroke-dasharray:5.011,3.311;}
	.st23{clip-path:url(#SVGID_14_);fill:none;stroke:#4771c1;stroke-width:1.7;}
	.st24{clip-path:url(#SVGID_14_);fill:none;stroke:#4771c1;stroke-width:1.7;stroke-dasharray:4.989,3.289;}
	.st25{fill:none;stroke:#4771c1;stroke-width:1.7;stroke-dasharray:5.084,3.384;}
	.st26{clip-path:url(#SVGID_16_);fill:none;stroke:#4771c1;stroke-width:1.7;}
	.st27{clip-path:url(#SVGID_16_);fill:none;stroke:#4771c1;stroke-width:1.7;stroke-dasharray:5.018,3.318;}
	.st28{clip-path:url(#SVGID_18_);fill:none;stroke:#4771c1;stroke-width:1.7;}
	.st29{fill:none;stroke:#4771c1;stroke-width:1.7;stroke-dasharray:5.042,3.342;}
	.st30{clip-path:url(#SVGID_20_);fill:#4771c1;}
	.st31{clip-path:url(#SVGID_20_);fill:none;stroke:#4771c1;stroke-width:1.7;stroke-dasharray:5.567,3.867;}
	.st32{clip-path:url(#SVGID_20_);fill:none;stroke:#4771c1;stroke-width:1.7;}
	.st33{clip-path:url(#SVGID_20_);fill:none;stroke:#4771c1;stroke-width:1.7;stroke-dasharray:5.009,3.309;}
	.st34{clip-path:url(#SVGID_20_);fill:none;stroke:#4771c1;stroke-width:1.7;stroke-dasharray:5.114,3.414;}
	.st35{clip-path:url(#SVGID_20_);fill:none;stroke:#4771c1;stroke-width:1.7;stroke-dasharray:5.004,3.304;}
	.st36{fill:none;stroke:#4771c1;stroke-width:1.7;stroke-dasharray:5.117,3.417;}
	.st37{clip-path:url(#SVGID_22_);fill:none;stroke:#4771c1;stroke-width:1.7;stroke-dasharray:4.985,3.285;}
	.st38{clip-path:url(#SVGID_22_);fill:none;stroke:#4771c1;stroke-width:1.7;}
	.st39{clip-path:url(#SVGID_24_);fill:none;stroke:#4771c1;stroke-width:1.7;}
	.st40{clip-path:url(#SVGID_24_);fill:none;stroke:#4771c1;stroke-width:1.7;stroke-dasharray:5.429,3.729;}
	.st41{clip-path:url(#SVGID_24_);fill:#4771c1;}
	.st42{fill:none;stroke:#4771c1;stroke-width:1.7;stroke-dasharray:4.977,3.277;}
	.st43{fill:none;stroke:#4771c1;stroke-width:1.7;stroke-dasharray:5.072,3.372;}
	.st44{fill:none;stroke:#4771c1;stroke-width:1.7;stroke-dasharray:5.195,3.495;}
	.st45{fill:none;stroke:#4771c1;stroke-width:1.7;stroke-dasharray:5.176,3.476;}
	.st46{fill:none;stroke:#4771c1;stroke-width:1.7;stroke-dasharray:5.144,3.444;}
	.st47{clip-path:url(#SVGID_26_);fill:none;stroke:#4771c1;stroke-width:1.7;}
	.st48{fill:none;stroke:#4771c1;stroke-width:1.7;stroke-dasharray:5.114,3.414;}
	.st49{clip-path:url(#SVGID_28_);fill:none;stroke:#4771c1;stroke-width:1.7;}
	.st50{clip-path:url(#SVGID_28_);fill:none;stroke:#4771c1;stroke-width:1.7;stroke-dasharray:5.18,3.48;}
	.st51{fill:none;stroke:#4771c1;stroke-width:1.7;stroke-dasharray:5.021,3.321;}
	.st52{fill:none;stroke:#4771c1;stroke-width:1.7;stroke-dasharray:5.1,3.4;}
	.st53{fill:none;stroke:#4771c1;stroke-width:1.7;stroke-dasharray:5.118,3.418;}
	.st54{fill:none;stroke:#4771c1;stroke-width:1.7;stroke-dasharray:4.987,3.287;}
	.st55{clip-path:url(#SVGID_30_);fill:none;stroke:#4771c1;stroke-width:1.7;}
	.st56{fill:none;stroke:#4771c1;stroke-width:1.7;stroke-dasharray:5.041,3.341;}
	.st57{fill:none;stroke:#4771c1;stroke-width:1.7;stroke-dasharray:5.246,3.546;}
	.st58{fill:none;stroke:#4771c1;stroke-width:1.7;stroke-dasharray:5.132,3.432;}
	.st59{fill:none;stroke:#4771c1;stroke-width:1.7;stroke-dasharray:4.991,3.291;}
	.st60{clip-path:url(#SVGID_32_);fill:none;stroke:#4771c1;stroke-width:1.7;stroke-dasharray:5.128,3.428;}
	.st61{fill:none;stroke:#4771c1;stroke-width:1.7;stroke-dasharray:5.024,3.324;}
	.st62{fill:none;stroke:#4771c1;stroke-width:1.7;stroke-dasharray:5.029,3.329;}
	.st63{fill:none;stroke:#4771c1;stroke-width:1.7;stroke-dasharray:5.129,3.429;}
	.st64{clip-path:url(#SVGID_34_);fill:none;stroke:#4771c1;stroke-width:1.7;}
	.st65{clip-path:url(#SVGID_36_);fill:none;stroke:#4771c1;stroke-width:1.7;}
	.st66{clip-path:url(#SVGID_36_);fill:none;stroke:#4771c1;stroke-width:1.7;stroke-dasharray:5.14,3.44;}
	.st67{clip-path:url(#SVGID_36_);fill:none;stroke:#4771c1;stroke-width:1.7;stroke-dasharray:4.881,3.181;}
</style>
<line class="st0" x1="209" y1="331" x2="70" y2="397"/>
<g>
	<defs>
		<rect id="SVGID_1_" width="1600" height="500"/>
	</defs>
	<clipPath id="SVGID_2_">
		<use xlink:href="#SVGID_1_"  style="overflow:visible;"/>
	</clipPath>
	<line class="st1" x1="133.5" y1="114.1" x2="-36.1" y2="96.3"/>
</g>
<g>
	<defs>
		<rect id="SVGID_3_" width="1600" height="500"/>
	</defs>
	<clipPath id="SVGID_4_">
		<use xlink:href="#SVGID_3_"  style="overflow:visible;"/>
	</clipPath>
	<line class="st2" x1="52.3" y1="254" x2="-6.7" y2="223.8"/>
</g>
<g>
	<defs>
		<rect id="SVGID_5_" width="1600" height="500"/>
	</defs>
	<clipPath id="SVGID_6_">
		<use xlink:href="#SVGID_5_"  style="overflow:visible;"/>
	</clipPath>
	<path class="st4" d="M834,64.2c8.7,0.1,16.9-4.6,21-12.4"/>
	<path class="st4" d="M857.7,41.3c0.1-8.7-4.6-16.8-12.4-21"/>
	<path class="st4" d="M834.8,17.6c-8.7-0.1-16.9,4.6-21,12.4"/>
	<path class="st4" d="M811.1,40.6c-0.1,8.7,4.6,16.9,12.4,21"/>
	<path class="st3" d="M825.1,62.3c0.8,0.4,1.7,0.7,2.5,0.9c0.9,0.3,1.8,0.5,2.6,0.6 M813,31.7c-0.4,0.8-0.7,1.7-0.9,2.5
		c-0.3,0.9-0.5,1.8-0.6,2.6 M843.7,19.5c-0.8-0.4-1.7-0.7-2.5-0.9c-0.9-0.3-1.8-0.5-2.6-0.6 M855.8,50.2c0.4-0.8,0.7-1.7,0.9-2.5
		c0.3-0.9,0.5-1.8,0.6-2.6"/>
	<path class="st4" d="M573.6,232.5c8.4,2.2,17.5-0.6,23.3-7.1"/>
	<path class="st4" d="M602,215.8c2.2-8.4-0.6-17.5-7.1-23.3"/>
	<path class="st4" d="M585.2,187.4c-8.4-2.2-17.5,0.6-23.3,7.1"/>
	<path class="st4" d="M556.8,204.2c-2.2,8.4,0.6,17.5,7.1,23.3"/>
	<path class="st3" d="M565.4,228.6c0.7,0.5,1.5,1,2.3,1.5c0.8,0.5,1.6,0.9,2.4,1.2 M560.7,195.9c-0.5,0.7-1,1.5-1.5,2.3
		c-0.5,0.8-0.9,1.6-1.2,2.4 M593.4,191.3c-0.7-0.5-1.5-1-2.3-1.5c-0.8-0.5-1.6-0.9-2.4-1.2 M598,224c0.5-0.7,1-1.5,1.5-2.3
		c0.5-0.8,0.9-1.6,1.2-2.4"/>
	<path class="st4" d="M1256.8,72.4c8.2-2.9,14.1-10.3,15.2-19"/>
	<path class="st4" d="M1270.8,42.6c-2.9-8.2-10.3-14.1-19-15.2"/>
	<path class="st4" d="M1240.9,28.6c-8.2,2.9-14.1,10.3-15.2,19"/>
	<path class="st4" d="M1226.9,58.4c2.9,8.2,10.3,14.1,19,15.2"/>
	<path class="st3" d="M1247.8,73.8c0.9,0,1.8,0,2.7,0c0.9-0.1,1.8-0.2,2.7-0.3 M1225.6,49.4c0,0.9,0,1.8,0,2.7s0.2,1.8,0.3,2.7
		 M1249.9,27.2c-0.9,0-1.8,0-2.7,0c-0.9,0.1-1.8,0.2-2.7,0.3 M1272.2,51.6c0-0.9,0-1.8,0-2.7s-0.2-1.8-0.3-2.7"/>
	<path class="st3" d="M834.4,48.9c4.4,0,8-3.6,8-8c0-4.4-3.6-8-8-8c-4.4,0-8,3.6-8,8C826.4,45.3,830,48.9,834.4,48.9z"/>
	<path class="st3" d="M1153.2,186c4.4,0,8-3.6,8-8c0-4.4-3.6-8-8-8c-4.4,0-8,3.6-8,8C1145.2,182.4,1148.8,186,1153.2,186z"/>
	<path class="st3" d="M1408.3,217.9c4.4,0,8-3.6,8-8c0-4.4-3.6-8-8-8c-4.4,0-8,3.6-8,8C1400.3,214.3,1403.9,217.9,1408.3,217.9z"/>
	<path class="st3" d="M1503.9,186c4.4,0,8-3.6,8-8c0-4.4-3.6-8-8-8c-4.4,0-8,3.6-8,8C1495.9,182.4,1499.5,186,1503.9,186z"/>
	<path class="st3" d="M229.8,217.9c4.4,0,8-3.6,8-8c0-4.4-3.6-8-8-8c-4.4,0-8,3.6-8,8C221.9,214.4,225.4,217.9,229.8,217.9z"/>
	<path class="st3" d="M524.8,131.8c4.4,0,8-3.6,8-8c0-4.4-3.6-8-8-8c-4.4,0-8,3.6-8,8C516.8,128.2,520.4,131.8,524.8,131.8z"/>
</g>
<line class="st0" x1="804.8" y1="265.6" x2="827.4" y2="63.6"/>
<g>
	<defs>
		<rect id="SVGID_7_" width="1600" height="500"/>
	</defs>
	<clipPath id="SVGID_8_">
		<use xlink:href="#SVGID_7_"  style="overflow:visible;"/>
	</clipPath>
	<path class="st5" d="M1121.3,89.5c3.9,0,7.1-3.2,7.1-7.1c0-3.9-3.2-7.1-7.1-7.1c-3.9,0-7.1,3.2-7.1,7.1
		C1114.2,86.3,1117.4,89.5,1121.3,89.5"/>
	<path class="st5" d="M1440.1,89.5c3.9,0,7.1-3.2,7.1-7.1c0-3.9-3.2-7.1-7.1-7.1c-3.9,0-7.1,3.2-7.1,7.1
		C1433,86.3,1436.2,89.5,1440.1,89.5"/>
	<path class="st5" d="M388.1,121.5c3.9,0,7.1-3.2,7.1-7.1c0-3.9-3.2-7.1-7.1-7.1c-3.9,0-7.1,3.2-7.1,7.1
		C381,118.3,384.2,121.5,388.1,121.5"/>
	<path class="st5" d="M260.6,153.3c3.9,0,7.1-3.2,7.1-7.1c0-3.9-3.2-7.1-7.1-7.1c-3.9,0-7.1,3.2-7.1,7.1
		C253.4,150.1,256.6,153.3,260.6,153.3"/>
	<path class="st5" d="M675,185.2c3.9,0,7.1-3.2,7.1-7.1c0-3.9-3.2-7.1-7.1-7.1c-3.9,0-7.1,3.2-7.1,7.1
		C667.9,182,671.1,185.2,675,185.2"/>
	<path class="st5" d="M738.8,57.7c3.9,0,7.1-3.2,7.1-7.1c0-3.9-3.2-7.1-7.1-7.1c-3.9,0-7.1,3.2-7.1,7.1
		C731.6,54.5,734.8,57.7,738.8,57.7"/>
	<path class="st5" d="M133.1,121.5c3.9,0,7.1-3.2,7.1-7.1c0-3.9-3.2-7.1-7.1-7.1c-3.9,0-7.1,3.2-7.1,7.1
		C125.9,118.3,129.1,121.5,133.1,121.5"/>
	<path class="st5" d="M961.9,89.5c3.9,0,7.1-3.2,7.1-7.1c0-3.9-3.2-7.1-7.1-7.1c-3.9,0-7.1,3.2-7.1,7.1
		C954.8,86.3,958,89.5,961.9,89.5"/>
	<path class="st5" d="M1248.9,57.6c3.9,0,7.1-3.2,7.1-7.1c0-3.9-3.2-7.1-7.1-7.1c-3.9,0-7.1,3.2-7.1,7.1
		C1241.7,54.4,1244.9,57.6,1248.9,57.6"/>
</g>
<line class="st6" x1="1225.8" y1="52" x2="960.5" y2="83.1"/>
<line class="st0" x1="795" y1="270" x2="674.9" y2="177.8"/>
<line class="st7" x1="1151" y1="170.8" x2="1120" y2="81"/>
<line class="st0" x1="227" y1="218" x2="213" y2="322"/>
<g>
	<defs>
		<rect id="SVGID_9_" width="1600" height="500"/>
	</defs>
	<clipPath id="SVGID_10_">
		<use xlink:href="#SVGID_9_"  style="overflow:visible;"/>
	</clipPath>
	<line class="st8" x1="1099" y1="-0.2" x2="1121.6" y2="82.4"/>
</g>
<line class="st9" x1="846" y1="62" x2="1091" y2="466"/>
<line class="st0" x1="1121.5" y1="82.2" x2="808.9" y2="267.7"/>
<line class="st0" x1="1150" y1="185.8" x2="1089.3" y2="337.5"/>
<line class="st10" x1="131.7" y1="113.9" x2="224" y2="204.1"/>
<line class="st11" x1="1145.3" y1="179.8" x2="809.8" y2="272.1"/>
<line class="st0" x1="1089.6" y1="337.6" x2="963" y2="85"/>
<line class="st0" x1="1280.9" y1="273.8" x2="1160" y2="182.8"/>
<line class="st12" x1="1250.6" y1="73.7" x2="1282" y2="276"/>
<line class="st0" x1="1280.6" y1="273.9" x2="1402" y2="214.8"/>
<line class="st13" x1="675.5" y1="178.7" x2="602" y2="204"/>
<line class="st14" x1="1120" y1="82" x2="1402" y2="205.8"/>
<line class="st15" x1="386" y1="113" x2="581" y2="307"/>
<line class="st16" x1="517.4" y1="127" x2="237.8" y2="208"/>
<line class="st0" x1="133" y1="114.1" x2="259.8" y2="147.3"/>
<line class="st17" x1="259" y1="147" x2="390" y2="113.4"/>
<line class="st0" x1="529" y1="131" x2="565" y2="191"/>
<line class="st0" x1="409" y1="263" x2="557" y2="216"/>
<line class="st0" x1="1238" y1="29" x2="1222" y2="4"/>
<g>
	<defs>
		<rect id="SVGID_11_" width="1600" height="500"/>
	</defs>
	<clipPath id="SVGID_12_">
		<use xlink:href="#SVGID_11_"  style="overflow:visible;"/>
	</clipPath>
	<line class="st18" x1="962.1" y1="82.6" x2="896.8" y2="1"/>
	<line class="st19" x1="1439" y1="83" x2="1602.6" y2="100.4"/>
</g>
<line class="st0" x1="1369" y1="347" x2="1259" y2="71"/>
<line class="st20" x1="1416" y1="208.8" x2="1496" y2="180.8"/>
<line class="st11" x1="1439" y1="81" x2="1499" y2="170.8"/>
<line class="st21" x1="1537" y1="339" x2="1415" y2="213.8"/>
<line class="st22" x1="1271" y1="58" x2="1440.6" y2="83.4"/>
<g>
	<defs>
		<rect id="SVGID_13_" width="1600" height="500"/>
	</defs>
	<clipPath id="SVGID_14_">
		<use xlink:href="#SVGID_13_"  style="overflow:visible;"/>
	</clipPath>
	<line class="st23" x1="1511" y1="182" x2="1600.4" y2="227.4"/>
	<line class="st23" x1="1600.4" y1="367" x2="1536.1" y2="337.3"/>
	<line class="st24" x1="1507" y1="185.8" x2="1599.3" y2="309.1"/>
	<line class="st23" x1="1535.7" y1="465.1" x2="1600.3" y2="433.1"/>
</g>
<line class="st0" x1="674.8" y1="178.2" x2="739" y2="50.5"/>
<line class="st25" x1="737.9" y1="49.2" x2="799" y2="266"/>
<g>
	<defs>
		<rect id="SVGID_15_" width="1600" height="500"/>
	</defs>
	<clipPath id="SVGID_16_">
		<use xlink:href="#SVGID_15_"  style="overflow:visible;"/>
	</clipPath>
	<path class="st26" d="M579.4,217.9c4.4,0,8-3.6,8-8c0-4.4-3.6-8-8-8c-4.4,0-8,3.6-8,8C571.4,214.4,575,217.9,579.4,217.9z"/>
	<line class="st26" x1="1050.9" y1="-0.6" x2="962.8" y2="80.2"/>
	<line class="st27" x1="673" y1="176" x2="583.9" y2="0.6"/>
	<line class="st26" x1="738" y1="51.8" x2="706.4" y2="-0.4"/>
	<line class="st26" x1="524" y1="116" x2="477.7" y2="-0.3"/>
</g>
<line class="st0" x1="517" y1="122" x2="217" y2="26"/>
<g>
	<defs>
		<rect id="SVGID_17_" width="1600" height="500"/>
	</defs>
	<clipPath id="SVGID_18_">
		<use xlink:href="#SVGID_17_"  style="overflow:visible;"/>
	</clipPath>
	<line class="st28" x1="388" y1="113.8" x2="418" y2="0"/>
</g>
<line class="st29" x1="215" y1="26" x2="132" y2="116"/>
<g>
	<defs>
		<rect id="SVGID_19_" width="1600" height="500"/>
	</defs>
	<clipPath id="SVGID_20_">
		<use xlink:href="#SVGID_19_"  style="overflow:visible;"/>
	</clipPath>
	<path class="st30" d="M420,4c3.9,0,7.1-3.2,7.1-7.1c0-3.9-3.2-7.1-7.1-7.1c-3.9,0-7.1,3.2-7.1,7.1C412.8,0.8,416,4,420,4"/>
	<line class="st31" x1="832" y1="2" x2="832" y2="17"/>
	<path class="st32" d="M1217,4.8c4.4,0,8-3.6,8-8c0-4.4-3.6-8-8-8c-4.4,0-8,3.6-8,8C1209,1.2,1212.6,4.8,1217,4.8z"/>
	<line class="st33" x1="186" y1="1.9" x2="214" y2="28"/>
	<path class="st30" d="M213.1,34.3c3.9,0,7.1-3.2,7.1-7.1c0-3.9-3.2-7.1-7.1-7.1c-3.9,0-7.1,3.2-7.1,7.1
		C206,31.1,209.2,34.3,213.1,34.3"/>
	<line class="st32" x1="215" y1="24" x2="230.4" y2="-0.4"/>
	<line class="st34" x1="1507.8" y1="1.4" x2="1444" y2="77"/>
	<line class="st32" x1="1419.9" y1="-0.3" x2="1439.2" y2="77"/>
	<line class="st32" x1="69.3" y1="398" x2="-0.4" y2="366.7"/>
	<path class="st30" d="M68.4,405.3c3.9,0,7.1-3.2,7.1-7.1c0-3.9-3.2-7.1-7.1-7.1c-3.9,0-7.1,3.2-7.1,7.1
		C61.3,402.1,64.5,405.3,68.4,405.3"/>
	<line class="st35" x1="68" y1="396" x2="182.9" y2="499.3"/>
	<path class="st30" d="M55.5,263.5c3.9,0,7.1-3.2,7.1-7.1c0-3.9-3.2-7.1-7.1-7.1s-7.1,3.2-7.1,7.1C48.4,260.3,51.6,263.5,55.5,263.5
		"/>
</g>
<line class="st36" x1="365.3" y1="275" x2="62" y2="257"/>
<g>
	<defs>
		<rect id="SVGID_21_" width="1600" height="500"/>
	</defs>
	<clipPath id="SVGID_22_">
		<use xlink:href="#SVGID_21_"  style="overflow:visible;"/>
	</clipPath>
	<line class="st37" x1="1.2" y1="311.6" x2="66.3" y2="393"/>
	<line class="st38" x1="70.6" y1="398.7" x2="-1.2" y2="433.9"/>
</g>
<g>
	<defs>
		<rect id="SVGID_23_" width="1600" height="500"/>
	</defs>
	<clipPath id="SVGID_24_">
		<use xlink:href="#SVGID_23_"  style="overflow:visible;"/>
	</clipPath>
	<path class="st40" d="M1363.7,388.9c7.3,4.7,16.7,5,24.3,0.6"/>
	<path class="st40" d="M1396,382c4.7-7.3,5-16.7,0.6-24.3"/>
	<path class="st40" d="M1389.1,349.7c-7.3-4.7-16.7-5-24.3-0.6"/>
	<path class="st40" d="M1356.8,356.6c-4.7,7.3-5,16.7-0.6,24.3"/>
	<path class="st39" d="M1357.2,382.5c0.5,0.7,1.1,1.4,1.7,2.1c0.6,0.7,1.2,1.3,1.9,1.9 M1363.1,350.1c-0.7,0.5-1.5,1.1-2.1,1.7
		c-0.7,0.6-1.3,1.2-1.9,1.9 M1395.6,356.1c-0.5-0.7-1.1-1.4-1.7-2.1c-0.6-0.7-1.2-1.3-1.9-1.9 M1389.6,388.5
		c0.7-0.5,1.4-1.1,2.1-1.7c0.7-0.6,1.3-1.2,1.9-1.9"/>
	<path class="st40" d="M396,295.7c8.2-2.9,14.1-10.3,15.2-19"/>
	<path class="st40" d="M410,265.8c-2.9-8.2-10.3-14.1-19-15.2"/>
	<path class="st40" d="M380.2,251.8c-8.2,2.9-14.1,10.3-15.2,19"/>
	<path class="st40" d="M366.2,281.6c2.9,8.2,10.3,14.1,19,15.2"/>
	<path class="st39" d="M387,297c0.9,0,1.8,0,2.7,0c0.9-0.1,1.8-0.2,2.7-0.3 M364.8,272.6c0,0.9,0,1.8,0,2.7s0.2,1.8,0.3,2.7
		 M389.2,250.4c-0.9,0-1.8,0-2.7,0c-0.9,0.1-1.8,0.2-2.7,0.3 M411.4,274.8c0-0.9,0-1.8,0-2.7c-0.1-0.9-0.2-1.8-0.3-2.7"/>
	<ellipse transform="matrix(1 -7.575583e-03 7.575583e-03 1 -2.0501 6.0878)" class="st39" cx="802.6" cy="273.7" rx="8" ry="8"/>
	<path class="st39" d="M292.5,409.2c4.4,0,8-3.6,8-8c0-4.4-3.6-8-8-8c-4.4,0-8,3.6-8,8C284.5,405.6,288.1,409.2,292.5,409.2z"/>
	<ellipse transform="matrix(1 -7.575583e-03 7.575583e-03 1 -3.2654 4.16)" class="st39" cx="547.5" cy="433.1" rx="8" ry="8"/>
	<path class="st39" d="M1217,504.8c4.4,0,8-3.6,8-8c0-4.4-3.6-8-8-8c-4.4,0-8,3.6-8,8C1209,501.2,1212.6,504.8,1217,504.8z"/>
	<path class="st39" d="M1503.9,377.3c4.4,0,8-3.6,8-8c0-4.4-3.6-8-8-8c-4.4,0-8,3.6-8,8C1495.9,373.7,1499.5,377.3,1503.9,377.3z"/>
	<path class="st39" d="M643.1,409.2c4.4,0,8-3.6,8-8c0-4.4-3.6-8-8-8c-4.4,0-8,3.6-8,8C635.1,405.6,638.7,409.2,643.1,409.2z"/>
	<path class="st41" d="M1089.5,344.6c3.9,0,7.1-3.2,7.1-7.1c0-3.9-3.2-7.1-7.1-7.1c-3.9,0-7.1,3.2-7.1,7.1
		C1082.3,341.4,1085.5,344.6,1089.5,344.6"/>
	<path class="st41" d="M420,504c3.9,0,7.1-3.2,7.1-7.1c0-3.9-3.2-7.1-7.1-7.1c-3.9,0-7.1,3.2-7.1,7.1C412.8,500.8,416,504,420,504"
		/>
	<path class="st41" d="M1280.7,280.8c3.9,0,7.1-3.2,7.1-7.1c0-3.9-3.2-7.1-7.1-7.1c-3.9,0-7.1,3.2-7.1,7.1
		C1273.6,277.6,1276.8,280.8,1280.7,280.8"/>
	<path class="st41" d="M898.2,344.6c3.9,0,7.1-3.2,7.1-7.1c0-3.9-3.2-7.1-7.1-7.1c-3.9,0-7.1,3.2-7.1,7.1
		C891,341.4,894.2,344.6,898.2,344.6"/>
	<path class="st41" d="M211.1,336.3c3.9,0,7.1-3.2,7.1-7.1c0-3.9-3.2-7.1-7.1-7.1c-3.9,0-7.1,3.2-7.1,7.1
		C204,333.1,207.2,336.3,211.1,336.3"/>
	<path class="st41" d="M579.4,312.7c3.9,0,7.1-3.2,7.1-7.1c0-3.9-3.2-7.1-7.1-7.1c-3.9,0-7.1,3.2-7.1,7.1
		C572.2,309.5,575.4,312.7,579.4,312.7"/>
	<path class="st41" d="M834.4,440.3c3.9,0,7.1-3.2,7.1-7.1c0-3.9-3.2-7.1-7.1-7.1c-3.9,0-7.1,3.2-7.1,7.1
		C827.3,437.1,830.5,440.3,834.4,440.3"/>
	<path class="st41" d="M1535.8,344.6c3.9,0,7.1-3.2,7.1-7.1c0-3.9-3.2-7.1-7.1-7.1c-3.9,0-7.1,3.2-7.1,7.1
		C1528.6,341.4,1531.8,344.6,1535.8,344.6"/>
	<path class="st41" d="M1376.4,376.4c3.9,0,7.1-3.2,7.1-7.1c0-3.9-3.2-7.1-7.1-7.1c-3.9,0-7.1,3.2-7.1,7.1
		C1369.2,373.2,1372.4,376.4,1376.4,376.4"/>
	<path class="st41" d="M1535.8,472.1c3.9,0,7.1-3.2,7.1-7.1c0-3.9-3.2-7.1-7.1-7.1c-3.9,0-7.1,3.2-7.1,7.1
		C1528.6,468.9,1531.8,472.1,1535.8,472.1"/>
	<path class="st41" d="M1089.5,472.1c3.9,0,7.1-3.2,7.1-7.1c0-3.9-3.2-7.1-7.1-7.1c-3.9,0-7.1,3.2-7.1,7.1
		C1082.3,468.9,1085.5,472.1,1089.5,472.1"/>
	<path class="st41" d="M388.1,280.9c3.9,0,7.1-3.2,7.1-7.1c0-3.9-3.2-7.1-7.1-7.1c-3.9,0-7.1,3.2-7.1,7.1
		C381,277.7,384.2,280.9,388.1,280.9"/>
</g>
<line class="st0" x1="1089.5" y1="337.6" x2="811" y2="275"/>
<line class="st42" x1="286" y1="396" x2="213" y2="334"/>
<line class="st43" x1="1091" y1="337" x2="833" y2="433"/>
<line class="st44" x1="833" y1="434" x2="899" y2="336"/>
<line class="st45" x1="809" y1="279" x2="900" y2="339"/>
<line class="st46" x1="837" y1="432.2" x2="578" y2="305"/>
<g>
	<defs>
		<rect id="SVGID_25_" width="1600" height="500"/>
	</defs>
	<clipPath id="SVGID_26_">
		<use xlink:href="#SVGID_25_"  style="overflow:visible;"/>
	</clipPath>
	<line class="st47" x1="289.9" y1="408.6" x2="229.4" y2="501.1"/>
</g>
<line class="st48" x1="1091" y1="465" x2="832" y2="433"/>
<g>
	<defs>
		<rect id="SVGID_27_" width="1600" height="500"/>
	</defs>
	<clipPath id="SVGID_28_">
		<use xlink:href="#SVGID_27_"  style="overflow:visible;"/>
	</clipPath>
	<line class="st49" x1="420.1" y1="497.1" x2="299.2" y2="405.4"/>
	<line class="st50" x1="390" y1="297" x2="421" y2="499"/>
</g>
<line class="st51" x1="1283" y1="274" x2="1088" y2="338"/>
<line class="st0" x1="419.9" y1="496.3" x2="540.8" y2="437.6"/>
<line class="st52" x1="218" y1="331" x2="540" y2="429"/>
<line class="st0" x1="795" y1="277" x2="579.3" y2="305.8"/>
<line class="st0" x1="1219.5" y1="488.8" x2="1281" y2="273.6"/>
<line class="st0" x1="579.6" y1="305.5" x2="549.2" y2="425"/>
<line class="st53" x1="1279" y1="274" x2="1496" y2="365.8"/>
<line class="st54" x1="1496" y1="372" x2="1400" y2="371"/>
<g>
	<defs>
		<rect id="SVGID_29_" width="1600" height="500"/>
	</defs>
	<clipPath id="SVGID_30_">
		<use xlink:href="#SVGID_29_"  style="overflow:visible;"/>
	</clipPath>
	<line class="st55" x1="479" y1="503" x2="398" y2="294"/>
</g>
<line class="st56" x1="1359" y1="384.8" x2="1224.4" y2="493"/>
<line class="st57" x1="555.7" y1="432.1" x2="635.2" y2="403.9"/>
<line class="st58" x1="577.9" y1="304.9" x2="638.3" y2="394.2"/>
<line class="st59" x1="1536.7" y1="336.6" x2="1510" y2="363.8"/>
<g>
	<defs>
		<rect id="SVGID_31_" width="1600" height="500"/>
	</defs>
	<clipPath id="SVGID_32_">
		<use xlink:href="#SVGID_31_"  style="overflow:visible;"/>
	</clipPath>
	<line class="st60" x1="552" y1="440" x2="582.6" y2="497.4"/>
</g>
<line class="st61" x1="411" y1="281" x2="581" y2="307"/>
<line class="st62" x1="1089" y1="336" x2="1211.7" y2="490.5"/>
<line class="st0" x1="651" y1="402.3" x2="834.5" y2="433.3"/>
<line class="st63" x1="834" y1="431" x2="831.9" y2="496"/>
<g>
	<defs>
		<rect id="SVGID_33_" width="1600" height="500"/>
	</defs>
	<clipPath id="SVGID_34_">
		<use xlink:href="#SVGID_33_"  style="overflow:visible;"/>
	</clipPath>
	<line class="st64" x1="647.1" y1="408.2" x2="707.3" y2="501"/>
</g>
<line class="st0" x1="1536" y1="465" x2="1507" y2="377"/>
<line class="st0" x1="804" y1="281.3" x2="834.6" y2="433.2"/>
<g>
	<defs>
		<rect id="SVGID_35_" width="1600" height="500"/>
	</defs>
	<clipPath id="SVGID_36_">
		<use xlink:href="#SVGID_35_"  style="overflow:visible;"/>
	</clipPath>
	<line class="st65" x1="1089.2" y1="464.9" x2="1119" y2="571"/>
	<line class="st65" x1="1089.5" y1="464.8" x2="1049.6" y2="500.6"/>
	<line class="st66" x1="833" y1="432" x2="918" y2="524"/>
	<line class="st65" x1="1440" y1="580" x2="1391.7" y2="386.8"/>
	<line class="st67" x1="1509.6" y1="499.3" x2="1533" y2="470.5"/>
</g>
<line class="st0" x1="133" y1="114" x2="58" y2="253"/>
</svg>
