<?xml version="1.0" encoding="utf-8"?>
<!-- Generator: Adobe Illustrator 28.2.0, SVG Export Plug-In . SVG Version: 6.00 Build 0)  -->
<svg version="1.1" id="Layer_1" xmlns="http://www.w3.org/2000/svg" xmlns:xlink="http://www.w3.org/1999/xlink" x="0px" y="0px"
	 viewBox="0 0 944 124" style="enable-background:new 0 0 944 124;" xml:space="preserve">
<style type="text/css">
	.st0{fill:#FFFFFF;}
</style>
<g>
	<path class="st0" d="M219.1,78.4c0.8-0.1,1.5-0.3,2.3-0.4c1.6-0.4,3.2-1,4.6-1.8c6.1-3.4,10.2-9.9,10.2-17.3
		c0-12.2-10.4-19.8-21.3-19.8h-45.7V19.4c0-3.2,1.3-5,4.5-5H188V3h-60v11.4h14.4c3.3,0,4.5,1.8,4.5,5v19.7H72.3v11.4h13.6
		c3.2,0,5.2,1.8,5.2,5.1v18.1c-28.1,0-32.3-12.4-32.3-24.1V19.4c0-3.2,1.3-5,4.5-5h14.4V3h-75v11.4h14.4c3.3,0,4.5,1.8,4.5,5v29.7
		c0,25.2,26.6,35.8,69.5,35.8v19.7c0,3.3-2,5.1-5.2,5.1H72.3V121h142.6c11.6,0,22.6-8.2,22.6-21.1c0-8.2-4.7-15.3-11.5-18.8
		c-1.4-0.7-3-1.3-4.6-1.7c-0.7-0.2-1.5-0.3-2.3-0.4C218.7,78.9,218.7,78.5,219.1,78.4L219.1,78.4z M169.2,55.2v-4.8h25.4
		c6.4,0,11.5,5.2,11.5,11.5s-5.2,11.5-11.5,11.5h-34.9C166.3,68.5,169.2,61.2,169.2,55.2L169.2,55.2z M128,50.4h18.9v6.2
		c0,7.1-4.5,16.9-18.9,16.9L128,50.4L128,50.4z M193.7,109.6H128V84.9h65.7c6.8,0,12.4,5.5,12.4,12.4
		C206.1,104,200.6,109.6,193.7,109.6L193.7,109.6z"/>
	<path class="st0" d="M588.4,51.6v6.8c0.6,0.2,2.1,0.4,3.6,0.6l-3.5,10c-0.8,2.1-1.8,4.9-2.3,7h-0.1c-0.4-2-1.3-4.9-2.1-7l-3.6-9.9
		c1.3-0.1,2.6-0.4,3.2-0.6v-6.8H566v6.8c0.7,0.2,2,0.4,3.5,0.6l10.6,27.2l-0.9,2.4c-1.7,4.5-3.5,5.7-10.1,5.4l3.4,8.7
		c9.8,0.1,13.5-4.6,16.9-13.2l12.1-30.4c1.6-0.1,3-0.4,3.8-0.6v-6.8h-16.9V51.6z"/>
	<path class="st0" d="M619.8,77c0-8.7,8.4-12.1,18.4-12.1h1.1v-2.1c0-2.7-1.3-4-5.3-4c-3.9,0-7.2,1.8-8.9,3.2l-4.3-6.2
		c2.5-2.3,7.5-5.1,14.4-5.1c10.1,0,14.7,3.7,14.7,13.2v11.7c0,1.3,0,2.4,0.1,3.4c1.8,0.1,3.3,0.2,4.2,0.2V86
		c-2.4,0.2-7.4,0.4-13.8,0.4c-0.3-0.8-0.5-2.7-0.6-4h-0.1c-1.5,2-4.8,4.4-9.4,4.4C624.5,86.9,619.8,83.4,619.8,77L619.8,77z
		 M639.3,77.1V71h-1.1c-5.1,0-8.3,1.4-8.3,5c0,2.5,1.8,3.5,3.9,3.5C636.5,79.5,638.2,78.4,639.3,77.1L639.3,77.1z"/>
	<path class="st0" d="M660.2,75.6V59.4H655v-7.9h5.2v-9.9h10.6v9.9h8.4v7.9h-8.4v14.3c0,3.4,1.1,4.7,3.5,4.7c2,0,3.7-0.8,4.4-1.2
		l2.3,7.7c-1.5,0.8-4.6,2-9.1,2C663,86.9,660.2,82.5,660.2,75.6L660.2,75.6z"/>
	<path class="st0" d="M699.2,79.4c1.2-0.3,3.9-0.7,5.6-0.7V46.6c-1.7,0-4.5-0.4-5.6-0.7v-6.7h23.1c8.7,0,16.5,2.7,16.5,11.6
		c0,6.5-3.7,9.6-8.8,10.9v0.1c5.5,0.8,10.7,4.3,10.7,11.2c0,9.5-7.9,13-18.6,13h-22.9V79.4L699.2,79.4z M716,58.5h4.7
		c4.8,0,6.8-1.9,6.8-5.8c0-3.7-2.2-5.6-6.5-5.6h-5V58.5L716,58.5z M716,78h5.5c5.1,0,7.6-1.8,7.6-6.1c0-4.1-2.3-6.1-7.2-6.1H716V78
		L716,78z"/>
	<path class="st0" d="M747.4,75.6V58.7c-1.8-0.2-3.1-0.3-4.4-0.3v-6.8c2.6-0.3,8.2-0.6,15.5-0.6l-0.4,5.6v16.9
		c0,3.2,1.1,4.6,4.1,4.6c2.8,0,5.1-2.2,6.2-3.7V58.7c-1.9-0.2-3.4-0.3-4.7-0.3v-6.8c2.6-0.3,8.6-0.6,15.8-0.6l-0.4,5.6v19
		c0,1.2,0,2.3,0.1,3.2c1.8,0.1,3.5,0.2,4.5,0.2v7c-2.4,0.2-7.5,0.4-14.1,0.4c-0.4-1.1-0.7-3.9-0.8-5.2h-0.1
		c-2.2,2.8-5.3,5.6-10.9,5.6C750.2,86.9,747.4,82,747.4,75.6L747.4,75.6z"/>
	<path class="st0" d="M837.8,77c0-8.7,8.4-12.1,18.4-12.1h1.1v-2.1c0-2.7-1.3-4-5.3-4c-3.9,0-7.2,1.8-8.9,3.2l-4.3-6.2
		c2.5-2.3,7.5-5.1,14.4-5.1c10.1,0,14.7,3.7,14.7,13.2v11.7c0,1.3,0,2.4,0.1,3.4c1.8,0.1,3.2,0.2,3.2,0.2V86
		c-2.4,0.2-6.4,0.4-12.8,0.4c-0.3-0.8-0.5-2.7-0.6-4h-0.1c-1.5,2-4.8,4.4-9.4,4.4C842.6,86.9,837.8,83.4,837.8,77L837.8,77z
		 M857.4,77.1V71h-1.1c-5.1,0-8.3,1.4-8.3,5c0,2.5,1.8,3.5,3.9,3.5C854.5,79.5,856.2,78.4,857.4,77.1L857.4,77.1z"/>
	<path class="st0" d="M875.1,79.4c1.1-0.3,2.9-0.7,4.4-0.7V42.8c-1.9-0.2-3.7-0.4-4.9-0.4v-6.7c2.6-0.3,8.7-0.6,16-0.6l-0.4,5.6
		v37.9c1.5,0,3.7,0.4,4.6,0.7V86h-19.7L875.1,79.4L875.1,79.4z"/>
	<path class="st0" d="M896.3,69c0-9.1,5.6-18.3,17.7-18.3c12.1,0,17.7,8.6,17.7,17.9c0,8.9-5.6,18.3-17.7,18.3
		C901.8,86.9,896.3,78.2,896.3,69L896.3,69z M920.3,68.9c0-6.1-1.6-10.5-6.5-10.5c-4.8,0-6.2,4.1-6.2,10.1c0,6.1,1.7,10.5,6.5,10.5
		C918.9,79.1,920.3,75.1,920.3,68.9L920.3,68.9z"/>
	<path class="st0" d="M259.3,67.7V46.5c-1.8,0-3.7-0.3-4.7-0.6v-6.7h21v6.7c-1,0.3-3.2,0.6-5,0.6v21c0,7.5,2.7,10.8,9.6,10.8
		c6.5,0,9.1-3.8,9.1-10.3V46.5c-1.8,0-4-0.3-4.9-0.6v-6.7h19.1v6.7c-1,0.3-3,0.6-4.6,0.6v20.1c0,13.2-6.2,20.3-19.5,20.3
		C265.6,86.9,259.3,80.1,259.3,67.7L259.3,67.7z"/>
	<path class="st0" d="M303.8,79.4c1.1-0.3,3.4-0.7,5-0.7v-20c-1.9-0.2-3.7-0.3-5-0.3v-6.8c2.6-0.3,8.6-0.6,15.7-0.6l-0.3,5h0.1
		c2.1-2.8,5.4-5.4,10.8-5.4c7.6,0,10.4,4.9,10.4,11.3v16.6c1.5,0,3.6,0.4,4.6,0.7V86h-15.3V63.9c0-3.2-1.2-4.6-4.2-4.6
		c-2.8,0-5.1,2.2-6.2,3.7v15.7c1.7,0.1,3.5,0.4,4.3,0.7V86h-20v-6.6H303.8z"/>
	<path class="st0" d="M349.7,79.4c1.1-0.3,3.4-0.7,5-0.7v-20c-1.9-0.2-3.7-0.3-5-0.3v-6.8c2.6-0.3,8.7-0.6,16.2-0.6l-0.4,5.6v21.9
		c1.5,0,3.7,0.4,4.6,0.7V86h-20.4L349.7,79.4L349.7,79.4z M353.8,41.2c0-3.3,2.6-6.1,6.3-6.1c3.7,0,6.3,2.7,6.3,6.1
		c0,3.3-2.6,6.2-6.3,6.2S353.8,44.5,353.8,41.2L353.8,41.2z"/>
	<path class="st0" d="M374,58.9c-1.5-0.1-2.8-0.4-3.5-0.6v-6.8h17.7v6.8c-0.6,0.2-2,0.4-3.2,0.6l3.6,10c0.8,2.1,1.8,4.9,2.1,6.9h0.1
		c0.4-2,1.4-4.8,2.2-6.9l3.6-10c-1.5-0.1-3-0.4-3.6-0.6v-6.8h16.8v6.8c-0.8,0.2-2.2,0.5-3.8,0.6L395.2,86h-10.7L374,58.9L374,58.9z"
		/>
	<path class="st0" d="M411.6,69.4c0-11.8,7.2-18.6,18.1-18.6c10.1,0,15,6.5,15,16.1c0,1.1-0.1,3.4-0.2,4.6h-21.4
		c0.3,4.8,3.2,7.9,8.4,7.9c4.4,0,6.9-1.2,8.7-2.2l3.2,6.4C440.9,85.1,437,87,430,87C418.3,86.9,411.6,80.4,411.6,69.4L411.6,69.4z
		 M434.2,64.9c-0.1-4.1-1.5-7.2-5.1-7.2c-3.9,0-5.9,2.7-6.3,7.2H434.2L434.2,64.9z"/>
	<path class="st0" d="M449.4,79.4c1.1-0.3,3.4-0.7,5-0.7v-20c-1.9-0.2-3.7-0.3-5-0.3v-6.8c2.6-0.3,8.7-0.6,15.8-0.6l-0.4,5.8h0.1
		c1.4-2.8,4.6-6.3,8.7-6.3c2.7,0,4.2,0.6,5,1.1l-2.5,9.2c-0.6-0.4-1.9-1-3.9-1c-3.8,0-6.3,2.8-7.2,4.4v14.3c1.7,0,4.6,0.4,5.6,0.7
		V86h-21.3L449.4,79.4L449.4,79.4z"/>
	<path class="st0" d="M482.2,84.4V75h7.4c0.1,0.2,0.4,3.2,0.4,3.7c1.8,0.4,3.7,0.8,5.7,0.8c3.7,0,5.5-1,5.5-2.9c0-2.4-3.4-3-7.3-3.9
		c-5.3-1.3-11.4-3.2-11.4-11.2c0-7,5.2-10.7,14.4-10.7c6.1,0,11.3,1.3,13,2.3v9.3h-7.5c-0.1-0.7-0.3-2.3-0.4-3.6
		c-1.5-0.4-3.2-0.6-4.8-0.6c-3.5,0-5.2,0.8-5.2,2.8c0,2.4,3.8,2.9,8,3.9c5.2,1.3,11,3.2,11,10.6c0,7.5-6.1,11.5-15.3,11.5
		C489.9,86.9,484.4,85.7,482.2,84.4L482.2,84.4z"/>
	<path class="st0" d="M516.2,79.4c1.1-0.3,3.4-0.7,5-0.7v-20c-1.9-0.2-3.7-0.3-5-0.3v-6.8c2.6-0.3,8.7-0.6,16.2-0.6l-0.4,5.6v21.9
		c1.5,0,3.7,0.4,4.6,0.7V86h-20.4L516.2,79.4L516.2,79.4z M520.3,41.2c0-3.3,2.6-6.1,6.3-6.1s6.3,2.7,6.3,6.1c0,3.3-2.6,6.2-6.3,6.2
		C522.9,47.4,520.3,44.5,520.3,41.2L520.3,41.2z"/>
	<path class="st0" d="M560.7,77.5c-0.8,0.4-2.2,0.9-3.8,0.9c-2.4,0-3.5-1.3-3.5-4.7V59.4h8.4v-7.9h-8.4v-9.9h-10.6v9.9h-5.2v7.9h5.2
		v16.2c0,6.8,2.8,11.3,11.7,11.3c4.4,0,7.5-1.1,9.1-2L560.7,77.5L560.7,77.5z"/>
	<path class="st0" d="M832.2,43c2.6,0,4.2,0.7,4.9,1l2.4-7.6c-1-0.6-3.7-1.8-9.2-1.8c-8.9,0-13.8,5.7-13.8,14v3h-12.7v-2.5
		c0-4,1.5-6.1,4.8-6.1c1.2,0,2.2,0.2,2.9,0.4c0.6-2.8,1.8-5.3,3.5-7.3l0,0c-1.3-0.7-4.3-1.5-8.4-1.5c-8.6,0-13.4,5.7-13.4,14v3h-5
		v7.9h5v19.2c-1.6,0-3.9,0.4-5,0.7V86h20.5v-6.7c-0.9-0.3-3.3-0.7-4.8-0.7V58.8h12.7v19.8c-1.7,0-3.4,0.4-4.5,0.7V86h20l1-6.7
		c-0.9-0.3-4.4-0.7-5.9-0.7V59.4h8.1v-7.9H827V49C827,45.1,828.5,43,832.2,43L832.2,43z"/>
	<path class="st0" d="M931.7,44c0-1.3,0.5-2.5,1.4-3.4s2.1-1.4,3.4-1.4c1.3,0,2.5,0.5,3.4,1.4s1.4,2.1,1.4,3.4
		c0,1.3-0.5,2.5-1.4,3.4s-2.1,1.4-3.4,1.4c-1.3,0-2.5-0.5-3.4-1.4S931.7,45.4,931.7,44L931.7,44z M932.8,44c0,1,0.4,1.9,1.1,2.7
		c0.7,0.7,1.6,1.1,2.6,1.1s1.9-0.4,2.6-1.1c0.7-0.7,1.1-1.6,1.1-2.7c0-1-0.4-1.9-1.1-2.7c-0.7-0.7-1.6-1.1-2.6-1.1s-1.9,0.4-2.6,1.1
		C933.2,42.1,932.8,43,932.8,44L932.8,44z M937.1,46.3l-1-1.5H936v1.5h-1.2v-4.7h1.9c1,0,1.6,0.7,1.6,1.6c0,0.7-0.4,1.3-1.1,1.5
		l1.2,1.6L937.1,46.3L937.1,46.3z M936,43.8h0.7c0.3,0,0.5-0.3,0.5-0.6c0-0.2-0.2-0.5-0.5-0.5H936V43.8L936,43.8z"/>
</g>
</svg>
