<?xml version="1.0" encoding="utf-8"?>
<!-- Generator: Adobe Illustrator 28.2.0, SVG Export Plug-In . SVG Version: 6.00 Build 0)  -->
<svg version="1.1" id="Layer_1" xmlns="http://www.w3.org/2000/svg" xmlns:xlink="http://www.w3.org/1999/xlink" x="0px" y="0px"
	 viewBox="0 0 692 74" style="enable-background:new 0 0 692 74;" xml:space="preserve">
<style type="text/css">
	.st0{fill:#005BBB;}
</style>
<g>
	<path class="st0" d="M336.5,20v6.8c0.6,0.2,2.1,0.4,3.6,0.6l-3.5,10c-0.8,2.1-1.8,4.9-2.3,7h-0.1c-0.4-2-1.3-4.9-2.1-7l-3.6-9.9
		c1.3-0.1,2.6-0.4,3.2-0.6V20H314v6.8c0.7,0.2,2,0.4,3.5,0.6l10.6,27.2l-0.9,2.4c-1.7,4.5-3.5,5.6-10.1,5.4l3.4,8.7
		c9.8,0.1,13.5-4.6,16.9-13.2l12.1-30.4c1.6-0.1,3-0.4,3.8-0.6V20H336.5L336.5,20z"/>
	<path class="st0" d="M367.8,45.5c0-8.7,8.4-12.1,18.4-12.1h1.1v-2.1c0-2.7-1.3-4-5.3-4c-3.9,0-7.2,1.8-8.9,3.2l-4.3-6.2
		c2.5-2.3,7.5-5.1,14.4-5.1c10.1,0,14.7,3.7,14.7,13.2V44c0,1.3,0,2.4,0.1,3.4c1.8,0.1,3.3,0.2,4.2,0.2v6.8
		c-2.4,0.2-7.4,0.4-13.8,0.4c-0.3-0.8-0.5-2.7-0.6-4h-0.1c-1.5,2-4.8,4.4-9.4,4.4C372.6,55.3,367.8,51.8,367.8,45.5L367.8,45.5z
		 M387.4,45.6v-6.1h-1.1c-5.1,0-8.3,1.4-8.3,5c0,2.5,1.8,3.5,3.9,3.5C384.6,47.9,386.3,46.8,387.4,45.6L387.4,45.6z"/>
	<path class="st0" d="M408.3,44.1V27.9h-5.2V20h5.2v-9.9h10.6V20h8.4v7.9h-8.4v14.3c0,3.4,1.1,4.7,3.5,4.7c2,0,3.7-0.8,4.4-1.2
		l2.3,7.7c-1.5,0.8-4.6,2-9.1,2C411.1,55.3,408.3,50.9,408.3,44.1L408.3,44.1z"/>
	<path class="st0" d="M447.2,47.8c1.2-0.3,3.9-0.7,5.6-0.7V15c-1.7,0-4.5-0.4-5.6-0.7V7.6h23.1c8.7,0,16.5,2.7,16.5,11.6
		c0,6.5-3.7,9.6-8.8,10.9v0.1c5.5,0.8,10.7,4.3,10.7,11.2c0,9.5-7.9,13-18.6,13h-22.9L447.2,47.8L447.2,47.8z M464.1,26.9h4.7
		c4.8,0,6.8-1.9,6.8-5.8c0-3.7-2.2-5.6-6.5-5.6h-5V26.9L464.1,26.9z M464.1,46.5h5.5c5.1,0,7.6-1.8,7.6-6.1c0-4.1-2.3-6.1-7.2-6.1
		h-5.9V46.5L464.1,46.5z"/>
	<path class="st0" d="M495.5,44.1V27.2c-1.8-0.2-3.1-0.3-4.4-0.3v-6.8c2.6-0.3,8.2-0.6,15.5-0.6l-0.4,5.6V42c0,3.2,1.1,4.6,4.1,4.6
		c2.8,0,5.1-2.2,6.2-3.7V27.2c-1.9-0.2-3.4-0.3-4.7-0.3v-6.8c2.6-0.3,8.6-0.6,15.8-0.6l-0.4,5.6v19c0,1.2,0,2.3,0.1,3.2
		c1.8,0.1,3.5,0.2,4.5,0.2v6.8c-2.4,0.2-7.5,0.4-14.1,0.4c-0.4-1.1-0.7-3.9-0.8-5.2h-0.1c-2.2,2.8-5.3,5.6-10.9,5.6
		C498.3,55.3,495.5,50.5,495.5,44.1L495.5,44.1z"/>
	<path class="st0" d="M585.9,45.5c0-8.7,8.4-12.1,18.4-12.1h1.1v-2.1c0-2.7-1.3-4-5.3-4c-3.9,0-7.2,1.8-8.9,3.2l-4.3-6.2
		c2.5-2.3,7.5-5.1,14.4-5.1c10.1,0,14.7,3.7,14.7,13.2V44c0,1.3,0,2.4,0.1,3.4c1.8,0.1,3.2,0.2,3.2,0.2v6.8
		c-2.4,0.2-6.4,0.4-12.8,0.4c-0.3-0.8-0.5-2.7-0.6-4h-0.1c-1.5,2-4.8,4.4-9.4,4.4C590.6,55.3,585.9,51.8,585.9,45.5L585.9,45.5z
		 M605.4,45.6v-6.1h-1.1c-5.1,0-8.3,1.4-8.3,5c0,2.5,1.8,3.5,3.9,3.5C602.6,47.9,604.3,46.8,605.4,45.6L605.4,45.6z"/>
	<path class="st0" d="M623.2,47.8c1.1-0.3,3-0.7,4.4-0.7V11.2c-1.9-0.2-3.7-0.4-4.9-0.4V4.2c2.6-0.3,8.7-0.6,16-0.6l-0.4,5.6v37.9
		c1.5,0,3.7,0.4,4.6,0.7v6.7h-19.7L623.2,47.8L623.2,47.8z"/>
	<path class="st0" d="M644.4,37.5c0-9.1,5.6-18.3,17.7-18.3c12.1,0,17.7,8.6,17.7,17.9c0,8.9-5.6,18.3-17.7,18.3
		C649.9,55.3,644.4,46.7,644.4,37.5L644.4,37.5z M668.4,37.4c0-6.1-1.6-10.5-6.5-10.5c-4.8,0-6.2,4.1-6.2,10.1
		c0,6.1,1.7,10.5,6.5,10.5S668.4,43.5,668.4,37.4L668.4,37.4z"/>
	<path class="st0" d="M7.3,36.2V14.9c-1.8,0-3.7-0.3-4.7-0.6V7.6h21v6.7c-1,0.3-3.2,0.6-5,0.6v21c0,7.5,2.7,10.8,9.6,10.8
		c6.5,0,9.2-3.8,9.2-10.3V14.9c-1.8,0-4-0.3-4.9-0.6V7.6h19.1v6.7c-1,0.3-3,0.6-4.6,0.6V35c0,13.2-6.2,20.3-19.5,20.3
		C13.7,55.3,7.3,48.6,7.3,36.2L7.3,36.2z"/>
	<path class="st0" d="M51.9,47.8c1.1-0.3,3.4-0.7,5-0.7V27.2c-1.9-0.2-3.7-0.3-5-0.3v-6.8c2.6-0.3,8.6-0.6,15.7-0.6l-0.3,5h0.1
		c2.1-2.8,5.4-5.4,10.8-5.4c7.6,0,10.4,4.9,10.4,11.3V47c1.5,0,3.6,0.4,4.6,0.7v6.7H77.9v-22c0-3.2-1.2-4.6-4.2-4.6
		c-2.8,0-5.1,2.2-6.2,3.7v15.7c1.7,0.1,3.5,0.4,4.3,0.7v6.7h-20L51.9,47.8L51.9,47.8z"/>
	<path class="st0" d="M97.8,47.8c1.1-0.3,3.4-0.7,5-0.7V27.2c-1.9-0.2-3.7-0.3-5-0.3v-6.8c2.6-0.3,8.7-0.6,16.2-0.6l-0.4,5.6V47
		c1.5,0,3.7,0.4,4.6,0.7v6.7H97.8V47.8L97.8,47.8z M101.9,9.7c0-3.3,2.6-6.1,6.3-6.1c3.7,0,6.3,2.7,6.3,6.1c0,3.3-2.6,6.2-6.3,6.2
		C104.5,15.8,101.9,13,101.9,9.7L101.9,9.7z"/>
	<path class="st0" d="M122.1,27.3c-1.5-0.1-2.8-0.4-3.5-0.6V20h17.7v6.8c-0.6,0.2-2,0.4-3.2,0.6l3.6,10c0.8,2.1,1.8,4.9,2.1,6.9h0.1
		c0.4-2,1.4-4.8,2.2-6.9l3.6-10c-1.5-0.1-3-0.4-3.6-0.6V20h16.8v6.8c-0.8,0.2-2.2,0.5-3.8,0.6l-10.8,27.1h-10.7L122.1,27.3
		L122.1,27.3z"/>
	<path class="st0" d="M159.7,37.8c0-11.8,7.2-18.7,18.1-18.7c10.1,0,15,6.5,15,16.1c0,1.1-0.1,3.4-0.2,4.6h-21.4
		c0.3,4.8,3.2,7.9,8.4,7.9c4.4,0,6.9-1.2,8.7-2.2l3.2,6.4c-2.5,1.5-6.4,3.4-13.4,3.4C166.4,55.3,159.7,48.9,159.7,37.8L159.7,37.8z
		 M182.3,33.3c-0.1-4.1-1.5-7.2-5.1-7.2c-3.9,0-5.9,2.7-6.3,7.2H182.3L182.3,33.3z"/>
	<path class="st0" d="M197.4,47.8c1.1-0.3,3.4-0.7,5-0.7V27.2c-1.9-0.2-3.7-0.3-5-0.3v-6.8c2.6-0.3,8.7-0.6,15.8-0.6l-0.4,5.8h0.1
		c1.4-2.8,4.6-6.3,8.7-6.3c2.7,0,4.2,0.6,5,1.1l-2.5,9.1c-0.6-0.4-1.9-1-3.9-1c-3.8,0-6.3,2.8-7.2,4.4v14.3c1.7,0,4.6,0.4,5.6,0.7
		v6.7h-21.3L197.4,47.8L197.4,47.8z"/>
	<path class="st0" d="M230.2,52.8v-9.4h7.4c0.1,0.2,0.4,3.2,0.4,3.7c1.8,0.4,3.7,0.8,5.7,0.8c3.7,0,5.5-1,5.5-2.9
		c0-2.4-3.4-3-7.3-3.9c-5.3-1.3-11.4-3.2-11.4-11.2c0-7,5.2-10.7,14.4-10.7c6.1,0,11.3,1.3,13,2.3v9.3h-7.5
		c-0.1-0.7-0.3-2.3-0.4-3.6c-1.5-0.4-3.2-0.6-4.8-0.6c-3.5,0-5.2,0.8-5.2,2.8c0,2.4,3.8,2.9,8,3.9c5.2,1.3,11,3.2,11,10.6
		c0,7.5-6.1,11.5-15.3,11.5C237.9,55.3,232.5,54.1,230.2,52.8L230.2,52.8z"/>
	<path class="st0" d="M264.3,47.8c1.1-0.3,3.4-0.7,5-0.7V27.2c-1.9-0.2-3.7-0.3-5-0.3v-6.8c2.6-0.3,8.7-0.6,16.2-0.6l-0.4,5.6V47
		c1.5,0,3.7,0.4,4.6,0.7v6.7h-20.4L264.3,47.8L264.3,47.8z M268.4,9.7c0-3.3,2.6-6.1,6.3-6.1c3.7,0,6.3,2.7,6.3,6.1
		c0,3.3-2.6,6.2-6.3,6.2C271,15.8,268.4,13,268.4,9.7L268.4,9.7z"/>
	<path class="st0" d="M308.8,46c-0.8,0.4-2.2,0.9-3.8,0.9c-2.4,0-3.5-1.3-3.5-4.7V27.9h8.4V20h-8.4v-9.9h-10.6V20h-5.2v7.9h5.2v16.2
		c0,6.8,2.8,11.3,11.7,11.3c4.4,0,7.5-1.1,9.1-2L308.8,46L308.8,46z"/>
	<path class="st0" d="M580.2,11.4c2.6,0,4.2,0.7,4.9,1l2.4-7.6c-1-0.6-3.7-1.8-9.2-1.8c-8.9,0-13.8,5.7-13.8,14v3h-12.7v-2.5
		c0-4,1.5-6.1,4.8-6.1c1.2,0,2.2,0.2,2.9,0.4c0.6-2.8,1.8-5.3,3.5-7.3l0,0c-1.3-0.7-4.3-1.5-8.4-1.5c-8.6,0-13.4,5.7-13.4,14v3h-5
		v7.9h5v19.2c-1.6,0-3.9,0.4-5,0.7v6.7h20.5v-6.7c-0.9-0.3-3.3-0.7-4.8-0.7V27.3h12.7v19.8c-1.7,0-3.4,0.4-4.5,0.7v6.7h20l1-6.7
		c-0.9-0.3-4.4-0.7-5.9-0.7V27.9h8.1V20h-8.1v-2.5C575.1,13.5,576.6,11.4,580.2,11.4L580.2,11.4z"/>
	<path class="st0" d="M679.8,12.5c0-1.3,0.5-2.5,1.4-3.4s2.1-1.4,3.4-1.4c1.3,0,2.5,0.5,3.4,1.4s1.4,2.1,1.4,3.4s-0.5,2.5-1.4,3.4
		s-2.1,1.4-3.4,1.4c-1.3,0-2.5-0.5-3.4-1.4S679.8,13.8,679.8,12.5L679.8,12.5z M680.9,12.5c0,1,0.4,1.9,1.1,2.7
		c0.7,0.7,1.6,1.1,2.6,1.1s1.9-0.4,2.6-1.1c0.7-0.7,1.1-1.6,1.1-2.7s-0.3-1.9-1.1-2.7c-0.7-0.7-1.6-1.1-2.6-1.1s-1.9,0.4-2.6,1.1
		C681.2,10.5,680.9,11.4,680.9,12.5L680.9,12.5z M685.2,14.8l-1-1.5h-0.1v1.5h-1.2v-4.7h1.9c1,0,1.6,0.7,1.6,1.6
		c0,0.7-0.4,1.3-1.1,1.5l1.1,1.6L685.2,14.8L685.2,14.8z M684.1,12.3h0.7c0.3,0,0.5-0.3,0.5-0.6c0-0.2-0.2-0.5-0.5-0.5H684
		L684.1,12.3L684.1,12.3z"/>
</g>
</svg>
